<mxfile host="app.diagrams.net" agent="Mozilla/5.0 (Windows NT 10.0; Win64; x64) AppleWebKit/537.36 (KHTML, like Gecko) Chrome/129.0.0.0 Safari/537.36" version="24.7.17">
  <diagram name="Página-1" id="ZA_9uoihJlghHjggJRSb">
    <mxGraphModel dx="2036" dy="931" grid="1" gridSize="10" guides="1" tooltips="1" connect="1" arrows="1" fold="1" page="1" pageScale="1" pageWidth="827" pageHeight="1169" math="0" shadow="0">
      <root>
        <mxCell id="0" />
        <mxCell id="1" parent="0" />
        <mxCell id="zMniDvu7l4l1g-uuoWxY-7" value="" style="edgeStyle=orthogonalEdgeStyle;rounded=0;orthogonalLoop=1;jettySize=auto;html=1;" parent="1" source="zMniDvu7l4l1g-uuoWxY-1" target="zMniDvu7l4l1g-uuoWxY-5" edge="1">
          <mxGeometry relative="1" as="geometry" />
        </mxCell>
        <mxCell id="zMniDvu7l4l1g-uuoWxY-11" value="Conexión Servidor" style="edgeLabel;html=1;align=center;verticalAlign=middle;resizable=0;points=[];" parent="zMniDvu7l4l1g-uuoWxY-7" vertex="1" connectable="0">
          <mxGeometry x="-0.1" y="-3" relative="1" as="geometry">
            <mxPoint as="offset" />
          </mxGeometry>
        </mxCell>
        <mxCell id="zMniDvu7l4l1g-uuoWxY-1" value="Cliente" style="verticalAlign=top;align=center;shape=cube;size=10;direction=south;fontStyle=0;html=1;boundedLbl=1;spacingLeft=5;whiteSpace=wrap;" parent="1" vertex="1">
          <mxGeometry x="60" y="190" width="130" height="140" as="geometry" />
        </mxCell>
        <mxCell id="zMniDvu7l4l1g-uuoWxY-2" value="Navegador" style="verticalAlign=top;align=center;shape=cube;size=10;direction=south;html=1;boundedLbl=1;spacingLeft=5;whiteSpace=wrap;" parent="zMniDvu7l4l1g-uuoWxY-1" vertex="1">
          <mxGeometry width="100" height="80" relative="1" as="geometry">
            <mxPoint x="10" y="50" as="offset" />
          </mxGeometry>
        </mxCell>
        <mxCell id="zMniDvu7l4l1g-uuoWxY-10" value="" style="edgeStyle=orthogonalEdgeStyle;rounded=0;orthogonalLoop=1;jettySize=auto;html=1;" parent="1" source="zMniDvu7l4l1g-uuoWxY-5" target="zMniDvu7l4l1g-uuoWxY-8" edge="1">
          <mxGeometry relative="1" as="geometry" />
        </mxCell>
        <mxCell id="zMniDvu7l4l1g-uuoWxY-12" value="Conexión MySQL" style="edgeLabel;html=1;align=center;verticalAlign=middle;resizable=0;points=[];" parent="zMniDvu7l4l1g-uuoWxY-10" vertex="1" connectable="0">
          <mxGeometry x="-0.15" y="-1" relative="1" as="geometry">
            <mxPoint as="offset" />
          </mxGeometry>
        </mxCell>
        <mxCell id="zMniDvu7l4l1g-uuoWxY-5" value="API" style="verticalAlign=top;align=center;shape=cube;size=10;direction=south;fontStyle=0;html=1;boundedLbl=1;spacingLeft=5;whiteSpace=wrap;" parent="1" vertex="1">
          <mxGeometry x="430" y="130" width="360" height="270" as="geometry" />
        </mxCell>
        <mxCell id="zMniDvu7l4l1g-uuoWxY-6" value="Gestor Cliente" style="verticalAlign=top;align=center;shape=cube;size=10;direction=south;html=1;boundedLbl=1;spacingLeft=5;whiteSpace=wrap;" parent="zMniDvu7l4l1g-uuoWxY-5" vertex="1">
          <mxGeometry width="100" height="80" relative="1" as="geometry">
            <mxPoint x="10" y="50" as="offset" />
          </mxGeometry>
        </mxCell>
        <mxCell id="Q_xQc4s_apUnnviqzkoL-254" value="Gestor Artista" style="verticalAlign=top;align=center;shape=cube;size=10;direction=south;html=1;boundedLbl=1;spacingLeft=5;whiteSpace=wrap;" vertex="1" parent="zMniDvu7l4l1g-uuoWxY-5">
          <mxGeometry x="119.99705882352941" y="50" width="105.88235294117648" height="80" as="geometry" />
        </mxCell>
        <mxCell id="Q_xQc4s_apUnnviqzkoL-255" value="Gestor Administrador" style="verticalAlign=top;align=center;shape=cube;size=10;direction=south;html=1;boundedLbl=1;spacingLeft=5;whiteSpace=wrap;" vertex="1" parent="zMniDvu7l4l1g-uuoWxY-5">
          <mxGeometry x="243.52823529411765" y="50" width="105.88235294117648" height="80" as="geometry" />
        </mxCell>
        <mxCell id="Q_xQc4s_apUnnviqzkoL-256" value="Gestor Sesion" style="verticalAlign=top;align=center;shape=cube;size=10;direction=south;html=1;boundedLbl=1;spacingLeft=5;whiteSpace=wrap;" vertex="1" parent="zMniDvu7l4l1g-uuoWxY-5">
          <mxGeometry x="10" y="160" width="100" height="80" as="geometry" />
        </mxCell>
        <mxCell id="Q_xQc4s_apUnnviqzkoL-257" value="Gestor General" style="verticalAlign=top;align=center;shape=cube;size=10;direction=south;html=1;boundedLbl=1;spacingLeft=5;whiteSpace=wrap;" vertex="1" parent="zMniDvu7l4l1g-uuoWxY-5">
          <mxGeometry x="122.94000000000005" y="160" width="100" height="80" as="geometry" />
        </mxCell>
        <mxCell id="Q_xQc4s_apUnnviqzkoL-258" value="Gestor Ventas" style="verticalAlign=top;align=center;shape=cube;size=10;direction=south;html=1;boundedLbl=1;spacingLeft=5;whiteSpace=wrap;" vertex="1" parent="zMniDvu7l4l1g-uuoWxY-5">
          <mxGeometry x="246.47000000000003" y="160" width="100" height="80" as="geometry" />
        </mxCell>
        <mxCell id="zMniDvu7l4l1g-uuoWxY-8" value="Base de Datos" style="verticalAlign=top;align=center;shape=cube;size=10;direction=south;fontStyle=0;html=1;boundedLbl=1;spacingLeft=5;whiteSpace=wrap;" parent="1" vertex="1">
          <mxGeometry x="545" y="510" width="130" height="140" as="geometry" />
        </mxCell>
        <mxCell id="zMniDvu7l4l1g-uuoWxY-9" value="MySQL" style="verticalAlign=top;align=center;shape=cube;size=10;direction=south;html=1;boundedLbl=1;spacingLeft=5;whiteSpace=wrap;" parent="zMniDvu7l4l1g-uuoWxY-8" vertex="1">
          <mxGeometry width="100" height="80" relative="1" as="geometry">
            <mxPoint x="10" y="50" as="offset" />
          </mxGeometry>
        </mxCell>
      </root>
    </mxGraphModel>
  </diagram>
</mxfile>
